PathFileType	4	(x/y/z)	S04_SL_Cal.trc
DataRate	CameraRate	NumFrames	NumMarkers	Units	OrigDataRate	OrigDataStartFrame	OrigNumFrames
240	240	7	51	mm	240	1501	2400
Frame#	Time	Sternum			R.Acromium			L.Acromium			Top.Head			R.ASIS			L.ASIS			R.PSIS			L.PSIS			R.Great.Tro			L.Great.Tro			R.Iliac.Crest			L.Iliac.Crest			V.Sacral			R.Thigh.Upper.Post			R.Thigh.Lower.Ant			R.Thigh.Lower.Post			R.Thigh.Upper.Ant			R.Knee.Lat			R.Knee.Med			R.Shank.Upper.Post			R.Shank.Lower.Ant			R.Shank.Lower.Post			R.Shank.Upper.Ant			R.Ankle.Lat			R.Ankle.Med			R.Heel.Upper			R.Heel.Med			R.Heel.Lat			R.Toe.Lat			R.Toe.Med			R.Toe.Tip			L.Thigh.Upper.Post			L.Thigh.Lower.Ant			L.Thigh.Lower.Post			L.Thigh.Upper.Ant			L.Knee.Lat			L.Knee.Med			L.Shank.Upper.Post			L.Shank.Lower.Ant			L.Shank.Lower.Post			L.Shank.Upper.Ant			L.Ankle.Lat			L.Ankle.Med			L.Heel.Upper			L.Heel.Med			L.Heel.Lat			L.Toe.Lat			L.Toe.Med			L.Toe.Tip			Cervical.Spine			Back			
		X1	Y1	Z1	X2	Y2	Z2	X3	Y3	Z3	X4	Y4	Z4	X5	Y5	Z5	X6	Y6	Z6	X7	Y7	Z7	X8	Y8	Z8	X9	Y9	Z9	X10	Y10	Z10	X11	Y11	Z11	X12	Y12	Z12	X13	Y13	Z13	X14	Y14	Z14	X15	Y15	Z15	X16	Y16	Z16	X17	Y17	Z17	X18	Y18	Z18	X19	Y19	Z19	X20	Y20	Z20	X21	Y21	Z21	X22	Y22	Z22	X23	Y23	Z23	X24	Y24	Z24	X25	Y25	Z25	X26	Y26	Z26	X27	Y27	Z27	X28	Y28	Z28	X29	Y29	Z29	X30	Y30	Z30	X31	Y31	Z31	X32	Y32	Z32	X33	Y33	Z33	X34	Y34	Z34	X35	Y35	Z35	X36	Y36	Z36	X37	Y37	Z37	X38	Y38	Z38	X39	Y39	Z39	X40	Y40	Z40	X41	Y41	Z41	X42	Y42	Z42	X43	Y43	Z43	X44	Y44	Z44	X45	Y45	Z45	X46	Y46	Z46	X47	Y47	Z47	X48	Y48	Z48	X49	Y49	Z49	X50	Y50	Z50	X51	Y51	Z51	

1501	6.25	351.47	1293.5	276.63	207.56	1521.5	451.09	194.38	1509.8	112.05	202.15	1838.3	269.85	330.06	1002.1	416.37	334.73	1014.3	166.27	121.09	1047	314.66	129.92	1049.9	232.83	232.7	929.1	480.46	212.51	937.17	100.7	248.08	1097.5	457.93	234.36	1101.8	118.84	102.26	1008	273.68	203.99	676.05	493.05	270.82	583.87	466.4	194.75	585.34	486.54	290.41	692.71	477.65	212	515.65	479.78	190.7	498.97	354.9	135.88	294.09	495.73	208.27	215.59	465.29	135.85	222.79	484.99	201.47	287.14	483.33	155.62	108.17	476.1	182.52	114.63	389.09	96.903	74.069	419.72	109.18	44.005	390.66	97.675	42.087	454.35	262.18	40.009	519.32	311.42	40.554	404.03	368.57	58.396	458.64	166.66	712.93	96.494	234.89	607.22	90.583	164.46	623.45	98.957	232.32	697.6	82.048	191.64	522.22	96.319	193.34	500.16	218.24	109.33	343.24	81.752	184.02	262.02	74.325	120.1	265.47	83.407	172.49	338.02	73.298	176.02	105.91	82.033	185.31	109.1	173.36	106.06	71.739	122.06	112.74	46.858	155.58	110.53	44.331	94.169	293.72	43.181	53.009	326.41	49.408	168.29	382.91	59.296	118.13	159.27	1555.3	286.34	93.496	1297.7	267.04
1502	6.2542	351.46	1293.5	276.63	207.55	1521.5	451.1	194.37	1509.8	112.05	202.16	1838.3	269.85	330.06	1002.1	416.37	334.72	1014.3	166.27	121.08	1047	314.66	129.91	1049.9	232.84	232.69	929.1	480.46	212.5	937.17	100.7	248.08	1097.5	457.93	234.35	1101.8	118.84	102.25	1008	273.68	203.99	676.05	493.05	270.81	583.87	466.4	194.74	585.34	486.54	290.41	692.71	477.65	211.99	515.64	479.78	190.69	498.97	354.9	135.87	294.09	495.73	208.27	215.59	465.29	135.88	222.78	484.99	201.46	287.14	483.33	155.62	108.16	476.1	182.52	114.63	389.09	96.902	74.069	419.72	109.18	44.005	390.66	97.676	42.086	454.35	262.18	40.009	519.32	311.42	40.554	404.03	368.57	58.396	458.64	166.65	712.93	96.497	234.88	607.22	90.583	164.45	623.45	98.959	232.31	697.6	82.049	191.63	522.22	96.321	193.34	500.16	218.25	109.32	343.24	81.754	184.02	262.02	74.326	120.09	265.47	83.408	172.49	338.02	73.299	176.01	105.92	82.031	185.31	109.1	173.36	106.06	71.736	122.06	112.74	46.858	155.58	110.53	44.331	94.169	293.72	43.181	53.009	326.41	49.409	168.29	382.91	59.296	118.13	159.27	1555.3	286.34	93.487	1297.7	267.04
1503	6.2583	351.45	1293.5	276.63	207.54	1521.5	451.1	194.36	1509.8	112.05	202.17	1838.3	269.85	330.05	1002.1	416.37	334.71	1014.3	166.27	121.08	1047	314.66	129.9	1049.9	232.84	232.69	929.1	480.47	212.49	937.17	100.7	248.07	1097.5	457.93	234.34	1101.8	118.84	102.24	1008	273.68	203.98	676.05	493.05	270.81	583.87	466.4	194.74	585.34	486.55	290.4	692.71	477.65	211.99	515.64	479.78	190.69	498.97	354.9	135.87	294.09	495.73	208.27	215.59	465.29	135.91	222.77	484.99	201.46	287.14	483.33	155.62	108.16	476.1	182.52	114.63	389.1	96.902	74.068	419.73	109.18	44.004	390.66	97.676	42.085	454.35	262.18	40.009	519.32	311.42	40.553	404.03	368.57	58.396	458.64	166.64	712.93	96.499	234.87	607.22	90.583	164.44	623.45	98.962	232.3	697.6	82.049	191.62	522.22	96.323	193.33	500.16	218.25	109.32	343.23	81.756	184.02	262.02	74.326	120.09	265.47	83.409	172.48	338.02	73.3	176.01	105.92	82.03	185.31	109.09	173.36	106.06	71.733	122.07	112.74	46.857	155.58	110.53	44.331	94.169	293.72	43.181	53.009	326.41	49.411	168.28	382.91	59.297	118.13	159.26	1555.3	286.34	93.479	1297.7	267.05
1504	6.2625	351.44	1293.5	276.63	207.53	1521.5	451.1	194.36	1509.8	112.05	202.18	1838.3	269.84	330.04	1002.1	416.37	334.7	1014.3	166.27	121.07	1047	314.67	129.89	1049.9	232.84	232.68	929.1	480.47	212.48	937.17	100.71	248.06	1097.5	457.93	234.33	1101.8	118.84	102.24	1008	273.69	203.98	676.05	493.05	270.81	583.87	466.4	194.74	585.34	486.55	290.4	692.71	477.65	211.99	515.64	479.78	190.68	498.97	354.9	135.87	294.09	495.73	208.26	215.59	465.29	135.92	222.76	485	201.46	287.14	483.33	155.61	108.16	476.1	182.52	114.63	389.1	96.901	74.068	419.73	109.18	44.004	390.66	97.676	42.084	454.35	262.18	40.009	519.32	311.41	40.553	404.03	368.57	58.396	458.64	166.63	712.93	96.502	234.86	607.22	90.583	164.43	623.45	98.964	232.29	697.6	82.05	191.61	522.22	96.325	193.33	500.16	218.25	109.31	343.23	81.759	184.01	262.02	74.327	120.08	265.47	83.41	172.47	338.02	73.301	176.01	105.92	82.029	185.31	109.09	173.36	106.06	71.73	122.07	112.74	46.857	155.58	110.53	44.331	94.169	293.72	43.181	53.009	326.41	49.412	168.28	382.91	59.297	118.13	159.25	1555.3	286.34	93.47	1297.7	267.05
1505	6.2667	351.44	1293.5	276.64	207.52	1521.5	451.1	194.35	1509.8	112.05	202.19	1838.3	269.84	330.04	1002.1	416.37	334.69	1014.3	166.27	121.06	1047	314.67	129.88	1049.9	232.85	232.68	929.1	480.47	212.47	937.17	100.71	248.06	1097.5	457.93	234.32	1101.8	118.84	102.23	1008	273.69	203.98	676.05	493.06	270.8	583.87	466.4	194.73	585.34	486.55	290.4	692.71	477.65	211.98	515.64	479.79	190.68	498.97	354.9	135.87	294.08	495.73	208.26	215.59	465.3	135.93	222.75	485	201.46	287.13	483.33	155.61	108.16	476.1	182.52	114.63	389.1	96.9	74.068	419.73	109.18	44.004	390.66	97.677	42.083	454.35	262.18	40.009	519.32	311.41	40.553	404.03	368.57	58.396	458.64	166.62	712.93	96.504	234.85	607.22	90.583	164.42	623.45	98.966	232.28	697.6	82.051	191.6	522.22	96.326	193.32	500.16	218.25	109.3	343.23	81.761	184.01	262.02	74.327	120.08	265.47	83.411	172.47	338.02	73.302	176.01	105.92	82.028	185.31	109.09	173.36	106.06	71.727	122.07	112.74	46.856	155.58	110.53	44.332	94.168	293.72	43.181	53.009	326.41	49.413	168.28	382.91	59.298	118.13	159.25	1555.3	286.34	93.462	1297.7	267.05
1506	6.2708	351.43	1293.5	276.64	207.51	1521.5	451.1	194.34	1509.8	112.05	202.2	1838.3	269.84	330.03	1002.1	416.37	334.68	1014.3	166.27	121.05	1047	314.68	129.88	1049.9	232.85	232.67	929.1	480.47	212.46	937.17	100.71	248.05	1097.5	457.93	234.31	1101.8	118.85	102.22	1008	273.69	203.97	676.05	493.06	270.8	583.87	466.4	194.73	585.34	486.55	290.39	692.71	477.65	211.98	515.64	479.79	190.67	498.97	354.91	135.87	294.08	495.73	208.26	215.59	465.3	135.94	222.75	485	201.46	287.13	483.33	155.61	108.16	476.1	182.52	114.63	389.1	96.899	74.068	419.73	109.18	44.004	390.66	97.677	42.083	454.35	262.18	40.01	519.32	311.41	40.553	404.03	368.57	58.396	458.64	166.61	712.93	96.506	234.84	607.21	90.583	164.41	623.45	98.968	232.27	697.6	82.052	191.59	522.22	96.328	193.31	500.16	218.25	109.3	343.23	81.764	184	262.02	74.328	120.07	265.46	83.412	172.46	338.02	73.303	176	105.92	82.028	185.32	109.09	173.36	106.07	71.726	122.07	112.74	46.856	155.58	110.53	44.332	94.168	293.72	43.181	53.009	326.41	49.415	168.28	382.91	59.298	118.13	159.24	1555.3	286.34	93.453	1297.7	267.05
1507	6.275	351.42	1293.5	276.64	207.5	1521.5	451.1	194.34	1509.8	112.06	202.21	1838.3	269.84	330.02	1002.1	416.37	334.67	1014.3	166.27	121.04	1047	314.68	129.87	1049.9	232.85	232.67	929.1	480.47	212.45	937.17	100.71	248.04	1097.5	457.93	234.3	1101.8	118.85	102.21	1008	273.7	203.97	676.05	493.06	270.8	583.87	466.4	194.72	585.34	486.55	290.39	692.71	477.65	211.97	515.64	479.79	190.67	498.97	354.91	135.86	294.08	495.73	208.26	215.59	465.3	135.94	222.75	485	201.45	287.13	483.33	155.61	108.17	476.11	182.52	114.63	389.1	96.898	74.068	419.73	109.18	44.003	390.66	97.677	42.082	454.35	262.18	40.01	519.32	311.41	40.553	404.03	368.57	58.397	458.64	166.6	712.93	96.508	234.83	607.21	90.583	164.4	623.45	98.971	232.26	697.6	82.053	191.58	522.22	96.33	193.31	500.16	218.25	109.29	343.23	81.766	184	262.02	74.329	120.07	265.46	83.413	172.46	338.02	73.304	176	105.92	82.029	185.32	109.09	173.36	106.07	71.725	122.07	112.74	46.856	155.58	110.53	44.332	94.168	293.72	43.182	53.009	326.41	49.416	168.28	382.91	59.299	118.13	159.24	1555.3	286.34	93.444	1297.7	267.05
